<svg xmlns="http://www.w3.org/2000/svg" viewBox="0 0 500 158.22"><defs><style>.cls-1{fill:#ff526b;}</style></defs><title>Beeline-Logo-Red</title><g id="Layer_2" data-name="Layer 2"><g id="Layer_1-2" data-name="Layer 1"><polygon class="cls-1" points="15.46 153.75 15.46 4.46 7.73 0 0 4.46 0 153.75 7.73 158.22 15.46 153.75"/><path class="cls-1" d="M140.26,123.83V34.39a.56.56,0,0,1,.63-.63h49.52q.69,0,.69.63v12.9q0,.63-.69.63h-34a.61.61,0,0,0-.69.69V70.8c0,.43.23.64.69.64h32.14a.55.55,0,0,1,.63.62V84.9c0,.47-.21.69-.63.69H156.42q-.69,0-.69.63v23.4a.61.61,0,0,0,.69.69h34q.69,0,.69.63v12.89q0,.63-.69.63H140.89A.56.56,0,0,1,140.26,123.83Z"/><path class="cls-1" d="M206.55,123.83V34.39a.56.56,0,0,1,.63-.63h49.53q.69,0,.69.63v12.9q0,.63-.69.63h-34a.61.61,0,0,0-.69.69V70.8c0,.43.23.64.69.64h32.14a.55.55,0,0,1,.63.62V84.9c0,.47-.21.69-.63.69H222.72q-.69,0-.69.63v23.4a.61.61,0,0,0,.69.69h34q.69,0,.69.63v12.89q0,.63-.69.63H207.18A.56.56,0,0,1,206.55,123.83Z"/><path class="cls-1" d="M449.15,123.83V34.39a.56.56,0,0,1,.63-.63h49.53q.69,0,.69.63v12.9q0,.63-.69.63h-34a.61.61,0,0,0-.69.69V70.8c0,.43.23.64.69.64h32.14a.55.55,0,0,1,.63.62V84.9c0,.47-.21.69-.63.69H465.32q-.69,0-.69.63v23.4a.61.61,0,0,0,.69.69h34q.69,0,.69.63v12.89q0,.63-.69.63H449.78A.56.56,0,0,1,449.15,123.83Z"/><path class="cls-1" d="M272.8,123.83V34.39a.56.56,0,0,1,.63-.63h14.21a.56.56,0,0,1,.63.63v75.42c0,.33.19.5.57.5h30.28a.55.55,0,0,1,.62.63v12.89a.56.56,0,0,1-.63.63H273.43A.56.56,0,0,1,272.8,123.83Z"/><path class="cls-1" d="M330.13,123.83V34.39a.56.56,0,0,1,.63-.63H345a.56.56,0,0,1,.63.63v89.44a.56.56,0,0,1-.63.63H330.76A.56.56,0,0,1,330.13,123.83Z"/><path class="cls-1" d="M361.05,123.83V34.39a.56.56,0,0,1,.63-.63h19.19a.92.92,0,0,1,.81.63L417,102.2a.83.83,0,0,0,.5.53.62.62,0,0,0,.54-.06.55.55,0,0,0,.21-.47V34.39c0-.42.23-.63.7-.63h14.15a.56.56,0,0,1,.63.63v89.44a.56.56,0,0,1-.63.63H413.89a1,1,0,0,1-.95-.63L377.79,56.1a.88.88,0,0,0-.51-.54.57.57,0,0,0-.53.07.52.52,0,0,0-.22.47v67.73a.56.56,0,0,1-.63.63H361.56Q361.05,124.46,361.05,123.83Z"/><path class="cls-1" d="M116.74,79.73a.64.64,0,0,1,0-1.25,22.7,22.7,0,0,0,8.65-7.5A18.54,18.54,0,0,0,129,60q0-11.7-7.39-19t-19.27-7.28H66.16a.55.55,0,0,0-.63.62v89.4a.56.56,0,0,0,.63.63h36.18q11.88,0,19.27-7.28t7.39-19a18.51,18.51,0,0,0-3.61-10.93A22.68,22.68,0,0,0,116.74,79.73ZM81,48.47c0-.45.21-.69.63-.69h18.5a13.34,13.34,0,0,1,9.28,3.8q4.13,3.8,4.12,8.46a11.72,11.72,0,0,1-3.71,8.46,11.91,11.91,0,0,1-8.74,3.73H81.5c-.33,0-.5-.2-.5-.62Zm28.41,58.17a13.34,13.34,0,0,1-9.28,3.8H81.63q-.63,0-.63-.69V86.61c0-.41.17-.62.5-.62h19.58a11.91,11.91,0,0,1,8.74,3.73,11.72,11.72,0,0,1,3.71,8.46Q113.53,102.85,109.41,106.64Z"/></g></g></svg>